<svg xmlns="http://www.w3.org/2000/svg" xmlns:xlink="http://www.w3.org/1999/xlink" width="36.645" height="30.16" viewBox="0 0 36.645 30.16"><defs><style>.a{fill:none;}.b{clip-path:url(#a);}.c{fill:#fff;}</style><clipPath id="a"><rect class="a" width="36.645" height="30.16"/></clipPath></defs><g class="b" transform="translate(0 0)"><path class="c" d="M36.494,3.615a15.173,15.173,0,0,1-3.7,1.057c.593-.1,1.468-1.179,1.822-1.615A6.9,6.9,0,0,0,35.841.814c.03-.064.053-.145-.009-.193a.212.212,0,0,0-.2.016,18.848,18.848,0,0,1-4.394,1.682.3.3,0,0,1-.3-.08,3.465,3.465,0,0,0-.384-.393A7.78,7.78,0,0,0,28.426.54,7.377,7.377,0,0,0,25.161.016a7.776,7.776,0,0,0-3.1.873,7.976,7.976,0,0,0-2.5,2.041,7.677,7.677,0,0,0-1.494,2.987A8.1,8.1,0,0,0,18,9.072c.023.177.007.2-.152.177-6.034-.9-11.037-3.056-15.1-7.684-.175-.2-.271-.2-.414.016-1.779,2.663-.917,6.942,1.3,9.045.3.28.6.561.928.818a7.718,7.718,0,0,1-2.914-.818c-.175-.11-.264-.046-.28.154a4.66,4.66,0,0,0,.048.864,7.744,7.744,0,0,0,4.773,6.172,4.691,4.691,0,0,0,.965.3A8.669,8.669,0,0,1,4.3,18.2c-.209-.039-.287.064-.209.264C5.348,21.89,8.062,22.91,10.1,23.492c.271.046.542.046.816.11-.018.025-.032.025-.048.048-.673,1.029-3.013,1.795-4.1,2.174a14.679,14.679,0,0,1-6.227.8c-.335-.051-.4-.046-.5,0s-.011.136.1.223c.423.28.857.529,1.3.77A20.565,20.565,0,0,0,5.6,29.278c7.48,2.066,15.906.549,21.522-5.032,4.412-4.382,5.959-10.426,5.959-16.476,0-.237.278-.368.443-.494a14.556,14.556,0,0,0,2.93-3.045.935.935,0,0,0,.193-.584V3.615c0-.1,0-.069-.149,0" transform="translate(-0.001 -0.001)"/></g></svg>