<svg xmlns="http://www.w3.org/2000/svg" xmlns:xlink="http://www.w3.org/1999/xlink" width="34.217" height="34.217" viewBox="0 0 34.217 34.217"><defs><style>.a{fill:none;}.b{clip-path:url(#a);}.c{fill:#fff;}</style><clipPath id="a"><rect class="a" width="34.217" height="34.217"/></clipPath></defs><g class="b" transform="translate(0 0)"><path class="c" d="M14.111,3.061a2.006,2.006,0,1,0,2.008,2.006,2.006,2.006,0,0,0-2.008-2.006" transform="translate(12.055 3.049)"/><path class="c" d="M12.846,4.35a8.426,8.426,0,1,0,8.426,8.424A8.434,8.434,0,0,0,12.846,4.35m0,13.823a5.4,5.4,0,1,1,5.4-5.4,5.4,5.4,0,0,1-5.4,5.4" transform="translate(4.402 4.333)"/><path class="c" d="M23.938,34.217H10.277A10.289,10.289,0,0,1,0,23.938V10.279A10.289,10.289,0,0,1,10.277,0H23.938A10.288,10.288,0,0,1,34.215,10.279V23.938A10.288,10.288,0,0,1,23.938,34.217m-13.662-31a7.065,7.065,0,0,0-7.057,7.059V23.938A7.065,7.065,0,0,0,10.277,31H23.938A7.067,7.067,0,0,0,31,23.938V10.279a7.067,7.067,0,0,0-7.059-7.059Z" transform="translate(0 0.001)"/></g></svg>