<svg xmlns="http://www.w3.org/2000/svg" xmlns:xlink="http://www.w3.org/1999/xlink" width="34.208" height="34.127" viewBox="0 0 34.208 34.127"><defs><style>.a{fill:none;}.b{clip-path:url(#a);}.c{fill:#fff;}</style><clipPath id="a"><rect class="a" width="34.208" height="34.128"/></clipPath></defs><g class="b" transform="translate(0 0)"><path class="c" d="M.564,11.331h7.1v22.8H.564ZM4.115,0A4.109,4.109,0,1,1,0,4.108,4.108,4.108,0,0,1,4.115,0" transform="translate(0 -0.001)"/><path class="c" d="M4.832,4.86h6.794V7.978h.1a7.452,7.452,0,0,1,6.712-3.684c7.175,0,8.5,4.719,8.5,10.86V27.66H19.847V16.575c0-2.647-.048-6.045-3.684-6.045-3.684,0-4.251,2.88-4.251,5.852V27.66H4.832Z" transform="translate(7.278 6.467)"/></g></svg>