<svg xmlns="http://www.w3.org/2000/svg" xmlns:xlink="http://www.w3.org/1999/xlink" width="26.547" height="27.991" viewBox="0 0 26.547 27.991"><defs><style>.a{fill:#fff;}.b{clip-path:url(#a);}</style><clipPath id="a"><rect class="a" width="26.547" height="27.991"/></clipPath></defs><g transform="translate(25.189 -28.981)"><g class="b" transform="translate(-25.189 28.981)"><path class="a" d="M86.758,10.539h-.015A1.142,1.142,0,0,1,85.59,9.406c.014-1.224-.309-4.754-1.941-6.346a2.821,2.821,0,0,0-2.041-.823h-.029A2.628,2.628,0,0,0,79.64,3c-1.587,1.564-1.806,5.13-1.757,6.373a1.169,1.169,0,0,1-2.334.088c-.009-.221-.2-5.438,2.411-8.015A4.983,4.983,0,0,1,81.627,0,5.168,5.168,0,0,1,85.32,1.5c2.645,2.587,2.608,7.72,2.605,7.937a1.145,1.145,0,0,1-1.168,1.1" transform="translate(-68.297 0)"/><path class="a" d="M24.363,90.34H2.178a2.223,2.223,0,0,1-1.7-.742,2.022,2.022,0,0,1-.432-1.741L3.551,70.8a2.827,2.827,0,0,1,2.725-2.146H20.383A2.813,2.813,0,0,1,23.1,70.8L26.5,87.86a2.029,2.029,0,0,1-.44,1.739,2.231,2.231,0,0,1-1.7.74M5.339,71.136,1.833,88.194a.342.342,0,0,0,.051.3.379.379,0,0,0,.293.105H24.363a.384.384,0,0,0,.3-.108.347.347,0,0,0,.054-.3l-3.4-17.055a1.015,1.015,0,0,0-.928-.735H6.276a1.027,1.027,0,0,0-.937.738" transform="translate(0 -62.348)"/></g></g></svg>