<?xml version="1.0" encoding="utf-8"?>
<!-- Generator: Adobe Illustrator 24.2.1, SVG Export Plug-In . SVG Version: 6.00 Build 0)  -->
<svg version="1.1" id="Layer_1" xmlns="http://www.w3.org/2000/svg" xmlns:xlink="http://www.w3.org/1999/xlink" x="0px" y="0px"
	 viewBox="0 0 1068.38 452.93" style="enable-background:new 0 0 1068.38 452.93;" xml:space="preserve">
<g>
	<path d="M346.22,323.12c-36.94-0.16-66.94-26.35-66.77-65.32c0.17-38.71,30.39-64.65,67.33-64.49
		c37.2,0.16,66.94,26.35,66.77,65.07C413.38,297.35,383.41,323.29,346.22,323.12 M346.73,204.2c-18.97-0.08-26.64,17.35-26.8,53.78
		c-0.16,36.69,7.36,54.18,26.33,54.26c19.23,0.08,26.9-17.34,27.06-54.03C373.48,221.77,365.96,204.28,346.73,204.2"/>
	<path d="M464.23,274.34c-0.06,13.92,5.21,24.57,19.63,24.63c14.42,0.06,25.36-12.15,25.46-36.94l0.16-38.03
		c0.07-15.94-4.98-19.25-15.57-26.13l0.01-2.23h53.64l-0.41,97.13c-0.07,16.7,2.45,18.77,13.3,26.15l-0.01,2.28h-51.37l0.14-31.88
		c-7.68,22.23-21.91,33.7-43.42,33.61c-26.57-0.12-39.39-18.64-39.28-43.69l0.24-55.42c0.07-15.94-5.23-19.07-15.58-25.95l0.01-2.23
		h53.39L464.23,274.34z"/>
	<path d="M637.09,321.2h-67.31l0.01-2.28c10.92-7.29,13.71-9.56,13.78-26.26l0.36-82.27h-17.71l0.04-10.9l17.73-5.24l0.04-8.35
		c0.13-31.37,24.01-53.03,60.19-52.88c14.68,0.06,28.32,4.68,37.14,13.07c9.66-10.59,24.11-16.34,41.57-16.27
		c17.96,0.08,32.1,7.22,39.65,16.87l29.16-14.8l-0.7,160.65c-0.07,16.7,2.45,18.99,13.3,26.37l-0.01,2.28h-64.78l0.01-2.28
		c10.91-7.29,13.45-9.56,13.52-26.26l0.54-124.24c0.07-17.21-10.51-26.87-24.18-26.93c-15.43-0.07-22.57,11.54-22.65,30.77
		l-0.1,23.37h30.62L736,210.38h-29.3l-0.41,82.59c-0.07,16.19,2.96,18.49,15.83,25.63l-0.01,2.6h-67.56l0.01-2.28
		c10.91-7.29,13.71-9.56,13.78-26.25l0.36-82.27h-47.07l-0.36,82.65c-0.07,16.19,3.21,18.49,15.83,25.63L637.09,321.2z
		 M669.71,195.64c0,0,0.43-22.19,0.35-24.07c-0.69-15.94-10.7-27.34-24.87-27.4c-14.42-0.06-23.33,11.03-23.41,30.51l-0.09,20.95
		H669.71z"/>
	<path d="M172.5,178.26c-0.07,15.94,8.5,23.57,27.96,29.72l24,7.44c27.8,8.98,44.94,22.21,44.82,52.07
		c-0.15,35.68-30.61,55.79-67.55,55.63c-12.19-0.05-23.05-3-33.23-6.02c-10.22-3.03-25.86-9.78-34.32-14.2v-40.79l4.81,0.02
		c18.09,29.18,35.72,47.98,62.54,48.1c21,0.09,33.19-10.23,33.27-28.45c0.07-16.2-9.51-24.33-27.2-29.72l-23.5-7.44
		c-30.83-10-46.71-23.99-46.59-51.57c0.14-31.63,25.78-52.27,65.25-52.1c8.81,0.04,29.29,1.31,57.71,11.06l0.51,43.35l-3.29-0.01
		c-17.1-26.39-30.43-42.89-54.98-43C185.27,152.25,172.57,162.83,172.5,178.26"/>
	<path d="M875.2,204.2c17.21,0.07,20.85,18.28,21.02,38.78h-46C851.84,219.96,859,204.13,875.2,204.2 M887.92,304.46
		c-24.04-0.1-38.38-18.84-38.25-47.44l84.51,0.06c0.17-39.22-20.22-63.6-58.69-63.76c-36.18-0.16-65.39,25.27-65.56,65
		c-0.19,42.51,28.82,64.65,64.75,64.8c29.1,0.13,48.79-14.64,56.86-40.74l-5.31-1.79C917.3,298.26,904.88,304.53,887.92,304.46"/>
	<g>
		<path d="M892.67,132.78l-1.54,3.74c-5.64,13.64-18.15,23.56-34.32,27.24c-2.37,0.54-8.53,1.8-14.67,1.85l-1.29,0.01l-0.01,13.9
			l1.42,0c8.89-0.16,18.38-1.67,26.02-4.38c15.95-5.66,27.62-15.42,34.67-29.02c0.79-1.52,1.59-3.02,2.24-4.61
			c0.35-0.85,1.06-2.78,1.51-3.99L892.67,132.78z"/>
	</g>
</g>
</svg>
